<?xml version="1.0" encoding="UTF-8"?>
<!DOCTYPE svg PUBLIC "-//W3C//DTD SVG 1.1//EN" "http://www.w3.org/Graphics/SVG/1.1/DTD/svg11.dtd">
<!-- Creator: CorelDRAW X7 -->
<svg xmlns="http://www.w3.org/2000/svg" xml:space="preserve" width="2.99744in" height="2.99744in" version="1.1" style="shape-rendering:geometricPrecision; text-rendering:geometricPrecision; image-rendering:optimizeQuality; fill-rule:evenodd; clip-rule:evenodd"
viewBox="0 0 7069 7069"
 xmlns:xlink="http://www.w3.org/1999/xlink">
 <defs>
  <style type="text/css">
   <![CDATA[
    .str0 {stroke:#048C4F;stroke-width:196.524}
    .str1 {stroke:#A9ABAE;stroke-width:7.0751}
    .fil0 {fill:none}
    .fil1 {fill:#FEFEFE}
    .fil2 {fill:#A9ABAE}
    .fil4 {fill:#D2E28B}
    .fil3 {fill:#048C4F}
    .fil5 {fill:#00A859}
    .fil7 {fill:#373435;fill-rule:nonzero}
    .fil6 {fill:#048C4F;fill-rule:nonzero}
   ]]>
  </style>
 </defs>
 <g id="Layer_x0020_1">
  <metadata id="CorelCorpID_0Corel-Layer"/>
  <g id="_304755944">
   <circle class="fil0 str0" cx="3535" cy="3535" r="3436"/>
   <rect class="fil1" x="1864" y="2059" width="3190" height="1881"/>
   <path class="fil2" d="M4864 2141l149 0 1 1790 -3102 6c-3,-169 -19,-1319 -1,-1686 -66,1 -132,6 -199,13 -3,116 10,238 10,300l-1 1324c-1,285 263,208 508,208 318,0 2779,17 2871,-11 156,-47 101,-441 101,-571l2 -1323c0,-153 -73,-202 -179,-215 -45,58 -99,113 -160,165zm-3039 -149c-35,10 -60,37 -77,74l5 -1c110,-32 233,-55 375,-64 -7,-6 -13,-13 -19,-20 -161,2 -267,6 -284,11zm694 -14c-81,0 -157,0 -228,1 -3,4 -7,7 -12,10l-14 8c6,0 12,0 18,0l2 0 0 0c89,5 167,-2 234,-19z"/>
   <path class="fil3" d="M3102 4592l735 3 49 108 -839 4 55 -115zm-1154 -393l3039 1 233 323 -3505 0 233 -324zm-647 614l4323 0 -551 -698 -3221 0 -551 698z"/>
   <polygon class="fil1" points="1715,4523 5220,4523 4987,4200 1948,4199 "/>
   <polygon class="fil2 str1" points="5624,4813 1301,4813 1287,4919 5637,4918 "/>
   <polygon class="fil4" points="3047,4707 3886,4703 3837,4595 3102,4592 "/>
   <path class="fil2" d="M2491 1196l-420 241 -162 397 131 -62c43,77 85,179 146,215l70 -39c-4,-36 -146,-171 -177,-197l265 -165 147 -390z"/>
   <path class="fil2" d="M2141 1752l241 -145 85 -241c571,223 61,786 -326,386z"/>
   <path class="fil2" d="M4194 494l-649 -11 -517 312 191 17c-24,107 -69,239 -38,314l108 3c27,-40 -2,-268 -12,-314l422 -7 495 -314z"/>
   <path class="fil2" d="M3342 854l378 -1 300 -196c397,587 -629,854 -678,197z"/>
   <path class="fil2" d="M4743 1494l153 80 184 -11c-26,310 -526,194 -337,-69z"/>
   <path class="fil2" d="M5202 1537l-259 -143 -308 10 71 48c-43,35 -103,77 -114,112l42 24c24,-9 85,-103 95,-123l173 87 300 -15z"/>
   <path class="fil3" d="M3430 2732l-174 0c1,-1 2,-3 3,-4 20,-22 48,-33 84,-33 32,0 58,10 79,29 3,2 5,5 8,8z"/>
   <path class="fil5" d="M2987 2661c-19,-20 -37,-41 -56,-60 -420,-429 -957,-458 -1527,-332 200,-122 472,-228 879,-225 530,29 719,-355 387,-697 378,241 622,561 699,979 -26,-473 -281,-794 -594,-1077 -333,-216 -638,-320 -919,-333 423,-9 880,28 1286,282 385,243 698,313 963,60 137,-149 170,-307 149,-469 102,266 90,605 34,941 -39,195 -115,349 -200,518 247,-242 371,-611 348,-1055 148,159 30,1012 648,567 -88,301 -466,505 -811,720l0 7 -11 0 -43 0 -195 0c-92,0 -158,5 -199,14 -65,15 -135,54 -181,95 -9,-11 -24,-21 -35,-31 -70,-64 -156,-95 -260,-95 -116,0 -292,54 -362,191z"/>
   <path class="fil3" d="M3045 2749c-1,25 -1,39 -2,-3l2 3z"/>
   <path class="fil6" d="M2974 3488l0 -160c34,-37 61,-79 81,-125 26,-59 40,-122 40,-188 0,-66 -14,-128 -40,-187 -14,-33 -33,-64 -55,-93 18,-42 43,-79 77,-111 69,-65 159,-97 272,-97 104,0 190,31 260,95 11,10 21,20 31,31 -10,12 -17,26 -24,40 -15,33 -23,71 -23,112 0,43 14,84 40,124 15,22 33,42 53,60 -18,40 -47,76 -85,106 -75,60 -175,90 -300,90l-26 0 0 -225 39 0c43,0 77,-10 102,-29 25,-19 37,-45 37,-78 0,-29 -10,-53 -31,-72 -21,-19 -47,-29 -79,-29 -36,0 -64,11 -84,33 -20,23 -30,54 -30,94l0 609 -255 0z"/>
   <path class="fil7" d="M2265 3014c0,71 26,131 78,181 52,49 115,74 188,74 73,0 135,-25 186,-74 52,-49 77,-110 77,-181 0,-71 -25,-131 -76,-180 -51,-49 -114,-74 -187,-74 -74,0 -137,25 -188,74 -52,49 -78,109 -78,180zm-260 1c0,-65 13,-128 39,-186 27,-59 65,-112 116,-159 50,-46 107,-82 170,-106 63,-24 130,-36 201,-36 70,0 138,12 201,37 64,24 121,60 171,106 49,46 87,98 113,157 26,59 39,121 39,187 0,66 -13,129 -39,188 -26,60 -64,112 -113,157 -50,47 -107,82 -171,107 -63,25 -131,37 -201,37 -70,0 -137,-12 -200,-37 -64,-25 -121,-60 -171,-107 -51,-47 -89,-100 -116,-158 -26,-59 -39,-121 -39,-187z"/>
   <path class="fil7" d="M3627 3488l0 -226 353 0c21,0 36,-4 48,-12 11,-8 16,-19 16,-34 0,-13 -5,-26 -17,-39 -11,-13 -29,-26 -53,-40l-196 -109c-45,-26 -81,-59 -108,-99 -27,-40 -40,-81 -40,-124 0,-41 7,-79 23,-112 15,-34 38,-62 68,-86 28,-23 63,-39 104,-49 41,-9 107,-14 199,-14l195 0 0 216 -229 0c-37,0 -63,3 -77,8 -14,6 -21,15 -21,28 0,13 5,26 16,38 11,13 29,25 51,38l193 106c25,14 48,29 67,46l0 148c0,84 18,150 54,200 -18,24 -39,44 -64,60 -30,20 -65,34 -103,43 -38,8 -99,13 -182,13l-16 0 -281 0z"/>
   <path class="fil6" d="M4262 2544l255 0 0 627c0,32 9,56 27,72 17,17 44,25 79,25l198 0 0 220 -202 0c-121,0 -211,-26 -269,-78 -59,-51 -88,-131 -88,-238l0 -628z"/>
   <path class="fil6" d="M833 4378c-36,14 -61,39 -77,74 -15,35 -16,70 -2,105 13,35 38,59 72,74 35,14 70,13 106,-1 36,-15 62,-40 77,-74 16,-35 16,-70 3,-105 -14,-35 -38,-60 -73,-74 -35,-14 -70,-14 -106,1zm-49 -124c33,-14 67,-21 102,-20 34,0 68,8 102,22 33,14 61,34 85,59 24,25 43,55 56,88 13,34 20,69 19,104 0,36 -8,70 -22,103 -14,33 -33,62 -58,87 -25,24 -54,43 -87,57 -34,14 -68,21 -103,20 -35,0 -69,-7 -101,-21 -33,-14 -61,-33 -86,-59 -24,-25 -43,-55 -56,-88 -13,-34 -20,-68 -19,-103 1,-36 8,-70 22,-104 15,-34 34,-63 59,-88 25,-25 54,-44 87,-57zm-129 762l279 -159c25,-14 44,-23 58,-29 14,-5 27,-8 40,-9 36,-3 70,4 100,21 31,17 56,42 74,75 26,47 31,95 17,144 -14,48 -45,86 -92,114 -48,27 -96,34 -144,21 -48,-13 -85,-44 -111,-91 -3,-6 -7,-14 -10,-22 -3,-8 -6,-16 -9,-26l104 -59c3,12 5,21 7,28 2,7 5,13 7,18 11,19 25,31 43,36 17,4 36,1 55,-10 20,-11 32,-25 38,-42 5,-18 3,-35 -7,-53 -11,-20 -25,-32 -43,-35 -18,-4 -38,1 -61,14l-289 166 -56 -102zm712 536c-47,12 -92,12 -132,-1 -41,-13 -74,-37 -101,-72 -15,-20 -25,-42 -31,-66 -6,-24 -7,-49 -4,-74 4,-25 12,-49 25,-71 12,-21 29,-40 49,-56 20,-16 42,-27 66,-34 24,-6 49,-8 74,-5 24,3 47,11 68,23 21,13 39,29 54,49 22,30 34,63 37,99 2,36 -6,73 -24,112l-203 -69 26 -78 112 37c-1,-8 -2,-15 -5,-22 -2,-6 -6,-13 -10,-19 -14,-18 -32,-28 -56,-30 -23,-3 -44,4 -64,20 -20,15 -33,35 -37,58 -4,24 0,44 14,63 13,17 30,29 51,36 21,7 45,8 72,3l19 97zm126 290l130 -159c11,-14 16,-28 16,-43 -1,-14 -7,-27 -19,-37 -12,-10 -25,-14 -40,-13 -14,2 -27,10 -38,23l-130 160 -88 -75 118 -145c37,-45 78,-71 123,-77 45,-7 87,7 126,40 21,17 37,39 47,64 11,25 15,52 13,80 -1,19 -6,36 -14,54 -8,17 -20,36 -38,58l-118 145 -88 -75zm331 262l60 -109 155 90c9,5 17,7 24,6 7,-1 12,-5 16,-12 4,-7 5,-14 3,-23 -1,-10 -5,-21 -12,-33l-56 -103c-13,-24 -20,-49 -21,-75 -1,-26 5,-50 16,-71 11,-20 25,-36 41,-48 15,-13 33,-21 52,-25 19,-3 38,-2 59,3 20,6 51,21 91,44l102 60 -58 104 -117 -68c-17,-9 -28,-14 -36,-15 -8,-1 -13,1 -17,8 -3,6 -4,14 -3,22 1,9 6,20 12,32l56 100c15,28 24,57 25,84 1,28 -5,54 -19,78 -11,21 -26,37 -44,50 -19,13 -39,20 -60,22 -19,2 -38,0 -57,-5 -19,-6 -46,-19 -83,-40l-6 -4 -123 -72zm555 88c-7,20 -7,39 0,58 7,18 19,31 36,37 17,7 34,6 52,-3 17,-9 30,-23 37,-43 7,-20 7,-39 0,-58 -7,-18 -19,-31 -36,-38 -18,-6 -35,-5 -52,4 -17,9 -29,24 -37,43zm-110 -42c9,-24 22,-45 38,-64 17,-18 37,-33 61,-44 22,-11 46,-16 70,-17 24,-1 47,3 70,11 24,10 44,23 62,40 17,17 31,37 41,60 10,24 15,48 15,73 1,26 -4,51 -13,75 -9,25 -22,46 -39,65 -16,18 -36,33 -59,44 -22,10 -46,16 -70,17 -24,1 -48,-3 -71,-12 -23,-9 -43,-22 -61,-39 -17,-17 -31,-37 -41,-61 -10,-24 -15,-49 -16,-74 0,-25 4,-49 13,-74zm561 10l-44 203c-4,17 -2,32 5,44 7,13 19,21 34,25 15,3 29,1 41,-7 11,-9 19,-21 23,-38l45 -203 111 26 -40 184c-13,57 -38,98 -75,125 -37,27 -81,34 -130,23 -27,-6 -50,-18 -71,-35 -20,-17 -35,-39 -46,-65 -8,-17 -12,-35 -12,-55 -1,-19 1,-42 7,-68l41 -184 111 25zm247 426l51 -369 104 15 -7 56c14,-18 30,-30 49,-36 20,-6 43,-8 71,-4l14 2 -15 112 -5 -1c-41,-5 -72,0 -93,16 -21,15 -34,44 -40,86l-19 139 -110 -16zm575 -222l-50 -1c-28,0 -49,6 -66,19 -16,13 -24,31 -24,53 -1,22 7,39 23,53 16,13 38,20 65,20l50 1 -1 113 -43 0c-65,-1 -116,-19 -155,-53 -38,-35 -57,-80 -56,-136 0,-56 20,-101 59,-134 40,-34 92,-50 156,-49l43 0 -1 114zm438 61c-13,49 -35,88 -65,118 -31,30 -68,48 -112,54 -24,3 -48,2 -71,-4 -24,-7 -45,-18 -65,-33 -20,-16 -36,-35 -49,-57 -12,-22 -20,-45 -23,-71 -4,-26 -3,-51 3,-76 6,-24 17,-47 32,-68 15,-20 33,-36 53,-49 21,-13 43,-21 68,-24 36,-5 71,0 103,15 32,16 60,41 84,77l-159 146 -53 -61 86 -81c-7,-3 -14,-6 -21,-7 -7,-1 -14,-1 -21,0 -22,3 -40,15 -53,34 -14,20 -19,42 -15,68 3,25 14,46 32,61 18,15 38,21 60,18 21,-3 40,-12 56,-27 16,-16 29,-37 38,-63l92 30zm136 -428l122 -42 110 330c5,17 14,29 25,34 12,6 26,6 43,0l94 -33 38 116 -96 34c-58,20 -105,21 -142,3 -37,-17 -65,-54 -83,-111l-111 -331zm787 73c4,50 -3,94 -22,133 -18,39 -47,69 -85,91 -22,11 -45,18 -69,21 -24,2 -48,-1 -72,-8 -24,-8 -46,-20 -65,-36 -19,-16 -34,-35 -46,-58 -13,-23 -20,-47 -23,-72 -2,-25 0,-50 7,-75 7,-25 18,-46 33,-65 15,-20 34,-35 55,-47 33,-18 67,-25 102,-22 35,3 70,17 104,42l-98 193 -71 -38 53 -107c-8,0 -15,0 -22,1 -7,2 -13,4 -19,8 -20,11 -33,28 -39,51 -6,23 -3,46 9,68 12,23 29,38 51,46 22,8 43,7 63,-4 18,-10 33,-26 43,-46 10,-20 14,-44 14,-72l97 -4zm333 -62l-101 -145c-16,-23 -32,-36 -50,-40 -17,-5 -35,0 -54,14 -16,11 -25,26 -27,44 -2,18 3,36 16,54 13,19 28,30 46,33 18,4 36,-1 54,-14 4,-3 9,-7 13,-13 5,-5 11,-13 18,-22l70 99c-7,7 -13,14 -19,19 -7,6 -13,11 -18,15 -44,32 -90,43 -139,34 -48,-9 -89,-36 -120,-81 -32,-46 -44,-94 -37,-144 8,-49 33,-90 76,-122 30,-22 63,-33 98,-36 35,-2 68,7 99,25 12,7 23,16 34,27 11,11 26,31 46,58l88 127 -93 68zm178 -142l-246 -275 77 -73 37 42c-4,-23 -2,-43 5,-62 8,-20 22,-39 43,-58l10 -10 75 83 -4 4c-31,29 -47,56 -48,83 -1,26 12,55 40,86l93 103 -82 77zm370 -391l-156 -133c-13,-11 -27,-16 -41,-15 -15,0 -27,7 -37,19 -10,12 -14,26 -12,41 1,14 9,27 22,39l156 132 -73 90 -142 -121c-44,-37 -69,-79 -76,-125 -6,-46 7,-89 39,-128 18,-22 39,-38 63,-49 25,-11 51,-15 79,-13 18,1 35,6 52,14 17,8 36,21 57,39l142 121 -73 89zm222 -569c27,42 42,84 45,127 2,43 -9,84 -33,122 -13,20 -30,38 -50,52 -20,14 -42,24 -66,29 -25,5 -50,5 -74,1 -24,-5 -47,-14 -69,-29 -21,-14 -39,-31 -53,-52 -15,-20 -25,-43 -30,-69 -6,-24 -6,-48 -2,-73 4,-24 13,-47 26,-68 20,-32 46,-55 79,-69 32,-15 69,-20 111,-16l6 219 -81 1 -4 -119c-7,3 -13,7 -18,11 -6,5 -10,10 -14,16 -12,20 -15,41 -10,64 6,23 20,42 41,55 21,14 43,20 66,16 23,-4 41,-16 53,-35 12,-18 17,-39 16,-61 -1,-23 -8,-46 -22,-71l83 -51zm152 -3l-331 -157 44 -97 50 23c-13,-19 -19,-38 -19,-59 -1,-21 5,-44 17,-70l6 -13 100 47 -2 5c-17,38 -22,70 -13,95 9,25 33,46 70,64l125 58 -47 104zm28 -326l44 -133c2,-7 3,-12 2,-16 -1,-4 -4,-7 -8,-9 -3,-1 -6,-1 -9,0 -3,1 -6,3 -8,5l-39 44c-21,25 -43,42 -65,50 -22,9 -44,9 -67,1 -30,-11 -50,-30 -59,-58 -10,-28 -8,-61 5,-100l40 -121 92 33 -39 119c-2,5 -2,9 -1,13 2,4 5,7 8,8 3,1 6,1 9,0 3,-1 6,-2 8,-5l36 -41c25,-29 49,-49 71,-58 22,-9 45,-10 69,-1 16,5 30,14 41,27 11,12 19,27 24,44 3,12 4,26 2,42 -2,15 -8,39 -20,73l-39 117 -97 -34z"/>
  </g>
 </g>
</svg>
